<svg version="1.0" xmlns="http://www.w3.org/2000/svg"
 width="800.000000pt" height="800.000000pt" viewBox="0 0 800.000000 800.000000"
 preserveAspectRatio="xMidYMid meet">

<g transform="translate(0.000000,800.000000) scale(0.100000,-0.100000)"
fill="#396D62" stroke="none">
<path d="M3780 7989 c-787 -42 -1552 -322 -2185 -800 -315 -237 -643 -578
-868 -901 -220 -316 -406 -690 -525 -1058 -37 -114 -92 -316 -92 -337 0 -5 35
-18 78 -27 241 -57 547 -202 651 -310 l33 -34 -74 -99 c-261 -347 -333 -587
-204 -688 24 -19 27 -25 13 -25 -31 0 -120 101 -183 210 -34 58 -94 166 -134
240 -116 215 -233 400 -243 383 -17 -28 -32 -292 -32 -553 1 -386 30 -629 116
-975 240 -955 846 -1805 1676 -2354 705 -464 1550 -695 2386 -651 219 12 304
21 507 56 644 112 1271 395 1785 807 480 384 845 841 1111 1392 189 393 305
781 365 1227 24 177 40 741 21 760 -7 7 -41 -6 -108 -41 -407 -210 -719 -670
-774 -1141 -14 -118 -15 -123 -47 -161 -34 -40 -93 -69 -543 -262 -460 -197
-789 -328 -885 -352 -130 -32 -222 0 -246 88 -15 54 -6 266 15 362 26 116 75
254 131 366 365 728 1200 1196 2283 1280 153 12 162 14 162 33 0 46 -43 309
-71 439 -119 544 -370 1092 -702 1532 -615 815 -1512 1368 -2497 1539 -206 35
-290 45 -505 56 -206 11 -202 11 -415 -1z m-518 -2339 c264 -14 457 -45 686
-111 759 -219 1448 -710 2044 -1457 100 -126 115 -153 104 -197 -4 -15 -81
-100 -179 -198 -339 -338 -505 -617 -562 -941 -16 -94 -19 -259 -6 -339 4 -26
4 -44 0 -40 -4 4 -42 82 -84 173 -110 234 -321 655 -433 860 -374 689 -706
1166 -1051 1510 -256 255 -462 391 -706 466 -82 26 -104 28 -250 28 -155 0
-163 -1 -254 -32 -185 -64 -327 -156 -492 -321 -208 -208 -394 -482 -610 -899
-41 -79 -86 -155 -100 -170 -42 -43 -615 -261 -688 -262 -71 0 -130 106 -117
214 7 62 29 115 95 229 308 533 744 953 1256 1210 108 53 339 143 460 176 190
54 443 96 630 104 33 2 62 4 65 5 3 1 89 -3 192 -8z"/>
</g>
</svg>
