
<svg version="1.0" xmlns="http://www.w3.org/2000/svg"
 width="800.000000pt" height="933.000000pt" viewBox="0 0 800.000000 933.000000"
 preserveAspectRatio="xMidYMid meet">

<g transform="translate(0.000000,933.000000) scale(0.100000,-0.100000)"
fill="white" stroke="none">
<path d="M344 9259 c-71 -27 -136 -87 -165 -151 l-24 -53 0 -4360 0 -4360 24
-48 c30 -60 108 -131 168 -151 42 -15 381 -16 3658 -16 4049 0 3661 -8 3754
76 27 25 60 66 73 92 l23 47 0 3475 c0 3701 2 3543 -46 3645 -12 26 -315 359
-819 901 -635 682 -808 863 -841 878 -106 47 -21 45 -2974 45 -2745 0 -2781 0
-2831 -20z m5657 -282 c34 -17 1544 -1649 1550 -1676 4 -14 7 -1571 8 -3458
l1 -3433 -3555 0 -3555 0 0 4290 0 4290 2768 -2 c1522 -2 2774 -7 2783 -11z"/>
<path d="M2215 7181 c-193 -55 -343 -207 -401 -406 -23 -81 -23 -221 0 -300
46 -154 144 -279 271 -341 231 -114 491 -71 670 110 40 40 85 98 103 134 l33
62 1495 0 1494 0 0 185 0 185 -1490 0 c-1329 0 -1490 2 -1490 15 0 9 -16 48
-36 87 -68 135 -194 233 -349 273 -79 20 -224 18 -300 -4z m218 -352 c47 -13
109 -67 132 -115 21 -45 21 -133 0 -178 -76 -160 -300 -163 -379 -5 -33 68
-34 120 0 187 47 95 146 139 247 111z"/>
</g>
</svg>
