<svg xmlns="http://www.w3.org/2000/svg" viewBox="0 0 24 24">
  <path fill="white" d="M10.5 18.27c0 .22.03.29.17.41.19.16.39.32.59.31.55-.03 1.09-.01 1.64-.01.38 0 .75-.02 1.13-.03.45 0 .91-.01 1.36-.02.09 0 .19.02.28 0 .17-.03.36-.08.48-.17.31-.24.42-.58.39-.93-.04-.46-.15-.91-.25-1.37-.2-.91-.77-1.6-1.48-2.18-.28-.24-.59-.45-.88-.67.03-.05.05-.09.08-.13.57-.7 1.1-1.43 1.65-2.14.3-.39.66-.71 1.08-.97.23-.15.46-.31.69-.45.15-.09.32-.18.5-.19.23-.02.47.06.7.09.28.03.52-.08.75-.22.12-.07.25-.17.31-.28.14-.25.28-.52.35-.79.12-.43.07-.85-.27-1.19-.38-.37-.9-.43-1.4-.49-.2-.02-.4.01-.6-.02-.18-.03-.36-.08-.52-.15-.41-.2-.8-.42-1.1-.77-.46-.54-.99-1.02-1.46-1.54-.15-.16-.24-.37-.34-.57-.05-.1-.05-.22-.07-.33-.01-.06-.04-.12 0-.16.07-.09.02-.19-.05-.27-.12-.16-.12-.32-.05-.5.05-.13.1-.26.18-.37.08-.11.19-.19.31-.32-.39-.16-.74-.31-1.09-.47-.03 0-.06 0-.08-.02a.52.52 0 0 1-.27-.22.36.36 0 0 1 .11-.36c.05-.04.11-.07.16-.11.24-.17.24-.17.02-.37-.28-.27-.3-.27-.63-.09-.13.08-.25.19-.38.29-.1.08-.22.12-.34.07-.09-.04-.19-.07-.29-.1-.1-.03-.22-.04-.33-.06 0-.12.03-.23-.02-.3-.3-.38-.18-.78-.13-1.17 0-.09-.07-.25-.16-.33-.28-.27-.59-.53-.9-.79-.14-.12-.29-.11-.48-.04-.13.05-.25.09-.36.2-.16.15-.31.32-.47.48-.09.09-.14.23-.23.33-.1.12-.22.22-.33.33-.05.05-.1.11-.15.16-.03.04-.06.08-.07.12-.05.21-.19.36-.32.51-.1.12-.13.32-.31.33-.23.01-.26.15-.18.32.03.05.06.1.08.15.05.15.13.3.14.46 0 .15-.1.3-.15.46-.01.05-.02.11-.01.16.05.22-.02.41-.13.6-.06.11-.12.2-.13.34 0 .05-.06.09-.09.14-.05.08-.11.16-.15.24-.05.1-.09.21-.13.32-.1.28-.3.45-.6.5-.35.05-.7.15-1.06.21-.26.04-.52.05-.78.06-.03 0-.06-.04-.09-.05-.11-.02-.23-.05-.34-.05-.12 0-.24.03-.36.06-.2.04-.39.07-.58.14-.25.1-.5.16-.77.08-.35-.11-.51-.44-.38-.8.03-.08.07-.16.1-.23.02-.04.04-.07.05-.11.03-.16.05-.32.08-.48.01-.03.03-.07.05-.08.29-.12.33-.4.37-.66.03-.18.11-.35.18-.52.03-.09.07-.19.14-.25.13-.11.12-.28.22-.38.22-.23.3-.54.46-.8.16-.26.32-.51.48-.77.08-.13.14-.27.22-.39.05-.08.12-.15.18-.22 0 0 .01 0 .01-.01.17-.14.35-.27.51-.41.14-.12.26-.25.39-.38.04-.04.08-.1.08-.15-.01-.51.2-.95.4-1.39.06-.15.12-.29.16-.44.05-.19.09-.39.15-.58.04-.11.11-.21.18-.32l.07-.07c.06-.04.12-.08.19-.09.18-.04.3-.16.4-.28.06-.08.18-.11.28-.16.07-.04.14-.07.21-.09.48-.11.96-.26 1.45-.28.28-.01.54-.09.8-.21.17-.08.33-.17.5-.25.18-.08.37-.18.55-.22.19-.04.39-.05.59-.05.66 0 1.29.16 1.8.58.09.07.17.18.24.28.13.17.25.35.38.53.03.04.07.08.11.12.33.31.55.71.9 1.01.08.07.14.18.18.28.08.2.19.37.36.51.12.09.22.24.3.38.06.09.09.21.15.31.05.1.11.2.17.3l.08.12c.16.19.43.32.42.59 0 .09.05.12.13.16.15.07.28.19.42.28.23.15.41.34.57.55.07.09.17.17.24.26.1.13.18.27.27.4.06.09.11.19.17.28.06.09.12.17.21.24.16.15.24.35.34.54.1.19.2.39.32.58.19.34.38.68.58 1.02.02.04.06.09.06.13.01.12.06.23-.02.35-.05.08-.05.19-.05.29 0 .11.03.23.05.34.01.05.03.09.04.14.05.22.11.45.16.67.05.18.1.37.14.55.03.15.07.28.2.39.03.03.04.07.05.11.11.31.22.63.35.93.05.11.15.2.23.3.05.06.11.12.15.19.06.12.13.23.15.36.05.3.28.44.52.55.06.02.11.05.15.09.1.08.19.18.28.27.05.06.1.12.14.18.06.07.12.15.17.22.03.03.05.07.07.11.03.08.04.17.08.24.09.18.19.35.28.53.04.07.07.15.11.21.15.22.3.43.44.65.06.09.09.19.13.29.03.06.05.13.09.18.11.14.24.28.35.42.07.07.11.15.16.23.03.05.04.11.08.15.21.28.43.55.64.83.06.07.13.14.17.22.05.09.09.18.14.26.14.25.28.5.43.74.07.12.15.22.24.33.07.09.15.19.21.29.12.19.22.39.34.58.04.06.11.11.17.16.19.15.29.35.35.57.06.22.09.46.14.69.07.3.14.61.22.91.04.14.07.28.12.42.07.19.11.39.09.59-.02.25-.05.5-.12.74-.09.32-.31.56-.54.81-.17.19-.42.27-.68.31-.21.04-.43.04-.64.04-.38.01-.76 0-1.14 0-.01 0-.03-.03-.04-.04-.15-.19-.25-.4-.21-.66.03-.18.06-.36.07-.55.01-.41.03-.82.04-1.23.01-.6.02-1.2.04-1.8 0-.08.02-.17.02-.25 0-.46.02-.91.02-1.37-.05-.1-.04-.24-.05-.35 0-.08 0-.16-.02-.23-.06-.23-.13-.46-.18-.69-.03-.1-.04-.22-.05-.33-.01-.11-.01-.22-.03-.33-.03-.26-.08-.51-.1-.77-.01-.11.01-.22.03-.33.03-.2.07-.41.11-.61.01-.09.02-.19.01-.29-.01-.21-.04-.42-.06-.63 0-.02-.02-.05-.03-.07-.08-.2-.16-.4-.25-.59-.05-.09-.12-.19-.18-.28-.06-.09-.13-.17-.19-.26-.04-.05-.06-.12-.1-.17-.04-.05-.08-.1-.11-.16-.05-.07-.09-.14-.14-.21-.03-.05-.07-.1-.13-.12-.02-.01-.05-.01-.06-.03-.03-.07-.12-.09-.12-.14-.19-.16-.28-.39-.41-.59-.07-.09-.12-.21-.2-.3-.07-.07-.16-.14-.25-.18-.2-.09-.4-.17-.61-.25-.1-.04-.21-.09-.31-.11-.14-.03-.28-.03-.42-.06-.11-.02-.22-.07-.32-.12-.04-.02-.08-.05-.12-.06-.19-.05-.37-.07-.54-.17-.07-.04-.15-.05-.22-.07-.17-.03-.34-.07-.51-.1-.09-.02-.17 0-.25.04-.08.04-.15.08-.22.13-.17.12-.32.26-.49.38-.07.05-.14.08-.21.12-.08.05-.15.11-.23.17-.06.05-.11.1-.17.14-.14.08-.28.17-.42.24-.08.04-.17.08-.26.09-.18.04-.33.14-.49.22-.11.05-.2.12-.31.17-.1.05-.2.09-.31.13-.08.03-.17.06-.25.1-.07.04-.14.09-.22.12-.17.06-.34.1-.51.15-.13.04-.26.08-.39.12-.1.04-.2.08-.3.1-.11.03-.22.03-.33.06-.09.03-.18.07-.27.1-.07.02-.15.04-.22.04-.36.01-.71.08-1.07.04-.16-.01-.32.05-.47.03-.41-.04-.82.01-1.23-.05-.13-.02-.26.05-.38.08-.14.03-.28.08-.41.12-.22.08-.43.17-.65.26-.13.05-.26.1-.39.15-.26.09-.5.21-.76.28-.2.05-.33.15-.43.28-.09.12-.12.27-.15.41-.06.31-.11.62-.22.93-.04.11-.07.23-.1.35-.01.06-.01.13.01.18.08.21.12.43.1.65-.02.29-.03.58.01.87.03.24.02.47.03.71.01.38.02.76.03 1.14 0 .04.02.09.03.13.03.08.07.17.08.26.03.19.05.39.07.58.01.1.01.2.02.3 0 .06.02.12.02.18 0 .05 0 .09.01.14 0 .06.03.13.01.19-.03.06-.09.11-.14.17-.06.07-.14.13-.22.19-.06.04-.12.06-.18.1-.11.07-.21.15-.32.22-.08.06-.15.13-.24.17-.08.04-.18.07-.27.09-.09.02-.19.05-.28.04-.27-.01-.54 0-.81 0-.09 0-.17-.02-.26-.03-.05 0-.11.01-.15 0-.07-.02-.14-.06-.2-.1-.11-.08-.22-.17-.32-.26-.04-.04-.09-.09-.11-.14-.03-.09-.05-.19-.07-.28-.02-.08-.05-.17-.05-.25 0-.38-.01-.76 0-1.14 0-.05.04-.1.07-.15.05-.08.11-.16.15-.25.04-.09.06-.19.09-.28.01-.04.02-.08.05-.11.07-.08.08-.17.09-.27.01-.07.01-.15.02-.22.01-.09.04-.17.04-.26 0-.12-.03-.25-.06-.37-.04-.16-.06-.32-.01-.49.09-.38.16-.77.22-1.16.02-.12.07-.25.02-.4zm-3.72-5.52c-.15.36-.24.74-.38 1.1-.09.24-.21.47-.33.69-.05.1-.12.2-.19.29-.07.08-.16.14-.24.22-.05.04-.1.09-.14.14-.08.09-.16.19-.24.28-.03.03-.05.05-.07.09-.11.18-.27.32-.43.46-.08.07-.16.16-.23.25-.04.04-.08.1-.11.15-.04.07-.09.13-.11.21-.02.06-.01.13-.04.19-.06.13-.09.28-.15.4-.09.18-.2.35-.29.54-.1.22-.16.45-.15.7.03.34-.07.68-.09 1.01-.01.21 0 .42-.02.63-.02.27-.05.53-.08.8-.01.15-.03.3-.04.44 0 .06.02.12.02.18.01.12.01.25.02.37.01.09.03.18.04.27 0 .09 0 .17.01.25.02.13.04.25.05.38.01.13 0 .27 0 .4 0 .18.01.36.02.54 0 .09.01.18.01.27 0 .35 0 .7-.01 1.05 0 .08-.02.16-.02.24 0 .06.02.11.04.17.02.06.05.12.05.17 0 .12-.04.24-.09.35-.02.04-.06.09-.09.14-.05.08-.11.15-.16.23-.05.09-.1.17-.16.25-.05.07-.11.14-.17.2-.03.03-.06.05-.09.08-.12.13-.24.25-.44.19-.1-.03-.2-.04-.3-.04-.1 0-.2 0-.3 0-.25-.01-.5-.01-.74-.03-.08 0-.16-.03-.24-.04-.08 0-.16-.01-.24-.02-.14-.01-.29-.02-.43-.03-.05 0-.1 0-.15.01-.1.02-.2.05-.3.05-.35-.01-.69-.01-1.04-.03-.1 0-.2-.04-.29-.06-.05-.01-.1-.03-.15-.03-.09 0-.19.01-.28.02-.02 0-.03.02-.05.03l.08.14c.03.06.07.12.1.18.03.07.06.14.07.2.01.06 0 .13 0 .19 0 .09.01.18-.01.27-.03.17-.08.33-.19.48-.05.08-.11.15-.17.22-.09.09-.2.15-.31.22-.08.05-.16.1-.25.15-.05.03-.11.05-.16.08-.04.02-.08.04-.12.05-.09.03-.18.06-.27.08-.08.01-.17.02-.25.03-.13.01-.25.03-.38.02-.34-.01-.68 0-1.02-.01-.32-.01-.63-.03-.94-.08-.29-.05-.53-.21-.68-.46-.05-.08-.11-.16-.13-.24-.04-.12-.06-.25-.07-.38-.03-.3-.04-.61-.07-.91-.02-.18-.06-.36-.07-.54-.02-.16-.02-.32-.02-.48 0-.12.03-.23.04-.35 0-.05 0-.11 0-.16 0-.09-.02-.19-.01-.28.01-.16.04-.32.06-.47 0-.05.01-.11.02-.16.01-.12.02-.24.05-.36.03-.16.08-.32.13-.48.03-.08.08-.16.11-.24.05-.15.08-.31.12-.46.04-.14.09-.27.13-.41 0-.02 0-.04.02-.05.05-.05.06-.1.05-.17-.02-.18-.02-.37-.03-.55v-.45c0-.08.03-.15.03-.23 0-.05-.03-.1-.04-.15-.04-.16-.08-.31-.1-.47-.02-.16-.01-.33-.03-.49-.02-.21-.06-.42-.09-.64-.03-.18-.05-.36-.08-.54-.04-.26-.08-.51-.13-.76-.03-.16-.06-.32-.1-.48-.03-.15-.07-.29-.1-.44-.04-.19-.09-.38-.13-.57-.05-.2-.11-.41-.15-.61-.06-.25-.08-.51-.04-.77.03-.21.07-.42.1-.63.01-.06 0-.13.01-.19.02-.13.06-.26.08-.4.01-.07.01-.14.01-.2 0-.05-.02-.1-.01-.15.01-.13.04-.25.06-.38.01-.06.02-.13.02-.19 0-.19 0-.37.01-.56 0-.05.02-.1.03-.15.01-.09.04-.18.05-.27.01-.1.02-.21.02-.31.01-.11 0-.22.02-.32.03-.22.07-.44.09-.66.01-.15.01-.3.01-.46 0-.09-.02-.17-.01-.26.02-.23.06-.45.08-.68.01-.08.01-.16.01-.24 0-.34 0-.68 0-1.01v-.22c0-.17-.01-.35.01-.52.01-.07.07-.14.11-.2.05-.07.1-.13.15-.19.04-.05.08-.1.14-.13.07-.04.15-.08.23-.1.07-.02.14-.01.21-.02.09-.01.18-.03.27-.04.08-.01.16 0 .24 0 .35.01.7.02 1.05.03.11 0 .22.02.32.02.16 0 .31-.03.47-.02.21.01.41.06.61.09.05.01.1.03.15.03.07 0 .14-.02.21-.03.09-.02.18-.06.28-.08.09-.02.19-.03.28-.03.2-.01.4 0 .59.02.07.01.14.06.2.1.08.06.15.13.23.18.23.16.32.4.34.67 0 .08.01.17 0 .25-.03.34-.09.68-.22 1-.03.08-.07.15-.1.23-.05.14-.09.27-.14.41-.03.1-.07.2-.11.29-.03.09-.08.17-.1.26-.04.16-.06.32-.09.48-.03.13-.05.26-.09.39-.05.19-.12.38-.17.57-.01.05-.01.11-.02.16 0 .15.01.3-.01.44-.02.15-.07.3-.1.44-.02.08-.03.17-.04.25-.03.15-.06.31-.09.46-.01.08-.01.16-.01.24 0 .28-.01.56 0 .84 0 .07.04.14.06.21.02.06.04.11.04.17 0 .06-.03.13-.05.19-.03.07-.07.14-.1.22zm.69 5.35c.08-.15.11-.3.17-.45.03-.08.07-.15.1-.23.03-.08.06-.16.07-.25.01-.08.01-.17.02-.25.01-.1.03-.2.03-.3 0-.1-.01-.2-.03-.3-.01-.06-.05-.11-.07-.17-.01-.05-.03-.1-.03-.15 0-.08.02-.16.02-.24 0-.07 0-.15-.02-.22-.03-.17-.07-.35-.1-.52-.02-.09-.03-.18-.03-.28 0-.07.03-.15.05-.22.01-.06.02-.12.02-.18 0-.11-.02-.22-.03-.32-.01-.13-.02-.25-.04-.38 0-.05-.02-.09-.02-.14 0-.07.02-.14.03-.2.02-.14.05-.28.08-.41.01-.05.02-.1.03-.15.02-.12.04-.23.05-.35.01-.09 0-.19.01-.28.01-.14.04-.28.05-.42.01-.21 0-.43.01-.64.01-.17.03-.35.05-.52 0-.06.02-.12.02-.18 0-.07-.03-.14-.03-.2-.01-.19-.02-.37-.01-.56 0-.08.03-.15.04-.23.02-.12.03-.24.05-.36.01-.05.03-.1.04-.15.06-.17.13-.34.18-.51.05-.15.09-.31.13-.47.02-.09.02-.18.02-.28 0-.09 0-.17.01-.26.01-.15.04-.3.04-.45v-.42c0-.05-.02-.1-.03-.15-.02-.08-.05-.15-.07-.23-.01-.07-.01-.15-.02-.22-.01-.11-.03-.22-.03-.33 0-.06.02-.11.03-.17.01-.05.02-.1.03-.16.02-.16.03-.32.03-.48 0-.05-.03-.1-.03-.15 0-.07.02-.14.03-.21.01-.07.03-.14.03-.22 0-.06-.02-.12-.02-.18 0-.08.02-.16.03-.24.01-.06.03-.12.04-.19.01-.08.02-.16.03-.24.01-.15.03-.29.05-.44.01-.06.04-.11.05-.17.03-.22.07-.44.1-.67.01-.12.01-.23.02-.35 0-.15.01-.29.01-.44 0-.05-.02-.1-.02-.15.01-.12.04-.23.05-.35.01-.09.01-.19.01-.28 0-.11-.02-.22-.01-.32.02-.29.07-.58.1-.87 0-.03 0-.07.01-.1.03-.08.06-.15.09-.23.03-.09.05-.19.09-.28.04-.09.1-.17.15-.25.09-.15.18-.29.26-.44.05-.08.09-.16.14-.23.03-.04.07-.08.1-.12.04-.06.09-.11.13-.17.08-.15.15-.3.24-.43.11-.17.23-.32.35-.48.08-.1.15-.22.23-.33.04-.06.08-.12.11-.19.04-.1.07-.2.12-.29.06-.11.13-.22.2-.32.06-.09.14-.17.2-.26.05-.08.1-.17.15-.26.02-.05.04-.1.07-.14.09-.15.18-.3.26-.46.04-.07.07-.15.11-.22.04-.07.08-.15.13-.21.14-.16.25-.36.31-.57.04-.13.05-.26.07-.39.03-.2.05-.4.07-.61.01-.09.02-.18.02-.28 0-.08 0-.16.02-.24.03-.13.08-.25.12-.38.03-.09.06-.18.08-.28.01-.07.01-.14.02-.21.03-.22.08-.44.1-.67.01-.1.01-.2.01-.3 0-.09.01-.17.02-.26.01-.09.04-.17.05-.26.01-.09.01-.18.01-.27 0-.07-.01-.13 0-.2.01-.11.04-.22.06-.33.01-.06.02-.12.03-.18.01-.08.03-.17.02-.25-.01-.1-.05-.21-.08-.31-.01-.04-.02-.08-.04-.12-.02-.09-.05-.18-.07-.28-.02-.08-.04-.16-.06-.24 0-.01.01-.03.01-.04l.41-.07c.09-.01.17-.01.26-.01.36-.01.71-.01 1.07-.01h.92c.25 0 .51.03.76 0 .2-.03.39-.02.59-.02.17 0 .33.03.5.05.08.01.16.03.24.03.11 0 .22-.03.33-.03.07 0 .15.03.22.04.11.01.21.03.32.03.13 0 .25-.02.38-.03.06 0 .13.01.19.02.06.01.12.04.18.05.06.01.13.02.19.02.07 0 .13-.03.2-.03.06 0 .12.03.17.04.19.06.38.1.56.21.08.05.18.07.25.14.06.06.1.14.15.22.07.12.11.24.12.38.01.1.01.2-.01.3-.03.14-.06.28-.11.42-.08.21-.18.42-.29.62-.05.08-.11.16-.16.24-.14.24-.27.48-.43.71-.07.1-.12.22-.17.33-.03.07-.06.15-.08.22-.02.08-.02.17-.04.25-.01.06-.02.11-.03.17-.05.22-.09.45-.14.67-.03.14-.06.27-.09.41-.01.06-.01.13-.02.19-.01.09-.03.18-.04.26-.01.1-.01.21-.01.31-.01.13-.01.26-.03.39-.04.31-.1.62-.15.93-.01.1-.01.21-.01.31 0 .17.01.34.01.51 0 .1-.01.2-.03.3-.02.14-.06.28-.09.42-.03.15-.06.31-.09.46-.01.05-.02.11-.02.16 0 .12.02.23.03.35 0 .08 0 .16-.01.24-.01.1-.03.2-.04.3-.01.09-.02.18-.02.28 0 .08.01.16.02.25.01.16.02.33.03.49 0 .08.01.17 0 .25-.03.2-.09.39-.13.59-.01.09-.03.18-.03.27 0 .06.03.12.03.18 0 .08-.02.15-.03.23-.01.1-.02.2-.03.3 0 .09.01.18.03.27.01.05.04.1.05.15.03.13.06.26.08.39.01.07.01.15.02.22.02.21.04.42.06.64 0 .07 0 .14 0 .22-.01.28-.01.57-.03.85 0 .09-.02.18-.02.28 0 .07.02.14.02.2 0 .12-.03.24-.04.36 0 .05-.01.1-.01.15.01.15.04.29.05.44 0 .03 0 .06.01.09.07.16.07.32.07.49 0 .08-.01.16-.01.24 0 .1.01.19.01.29 0 .03 0 .07.01.1.04.09.08.19.13.27.05.1.11.18.16.28.05.11.1.23.13.35.04.19.06.38.08.58.01.09.03.18.02.27-.02.18-.06.36-.09.53-.02.1-.04.2-.05.3 0 .05 0 .1.01.15.01.08.04.16.04.24 0 .09-.01.18-.02.27-.01.09-.02.18-.02.27 0 .16.02.32.04.48 0 .06.02.13.03.19.01.09.02.18.02.27v.27c0 .06-.02.12-.01.18.01.18.06.35.05.52-.01.19-.08.37-.13.55-.03.09-.05.17-.07.26z"/>
</svg> 