<svg version="1.0" xmlns="http://www.w3.org/2000/svg"
 width="48.000000pt" height="48.000000pt" viewBox="0 0 48.000000 48.000000"
 preserveAspectRatio="xMidYMid meet">

<g transform="translate(0.000000,48.000000) scale(0.100000,-0.100000)"
fill="white" stroke="none">
<path d="M16 464 c-24 -23 -24 -425 0 -448 23 -24 425 -24 448 0 24 23 24 425
0 448 -23 24 -425 24 -448 0z m321 -100 c2 -6 -30 -61 -71 -122 -41 -60 -72
-113 -69 -116 4 -3 35 -6 70 -6 49 0 63 -3 63 -15 0 -12 -17 -15 -90 -15 -80
0 -90 2 -90 18 0 10 32 65 70 121 39 57 70 107 70 112 0 5 -29 9 -65 9 -60 0
-75 6 -58 24 12 11 166 2 170 -10z"/>
</g>
</svg>
