<svg xmlns="http://www.w3.org/2000/svg" viewBox="0 0 24 24">
  <path fill="white" d="M20.4 16.8c-.18.28-.51.42-.84.42h-15c-.08 0-.17 0-.23-.03-.31-.1-.57-.38-.57-.76 0-.13.03-.26.09-.37 0 0 .1-.17.27-.36L5.3 14c.17-.19.4-.3.66-.3h11.26c.27 0 .53.11.71.3l1.86 2.13.21.24c.08.1.12.22.12.36l-.02.07zm-1.53-4.7c.15-.23.12-.54-.07-.75l-.32-.37c-.15-.17-.4-.22-.65-.2l-13.29.68c-.38.03-.57-.2-.65-.5-.07-.25-.06-.53.18-.66L16.17 5c.32-.16.58.12.57.5l-.05 1.3c-.01.38.27.64.65.61l1.99-.22c.38-.05.63.35.47.74l-2.46 4.43c-.17.29-.26.26-.49.04l-1.95-1.7c-.31-.26-.39-.25-.72.04l-2.85 2.58c-.31.32-.27.43.09.63l1.74.95c.32.15.29.25.06.46l-1.39 1.61c-.24.28-.54.26-.88.03l-2.78-1.89c-.33-.23-.33-.24 0-.47l3.23-2.01c.3-.19.33-.33.06-.59l-2.78-2.71c-.29-.24-.23-.37.16-.39l6.96-.29c.39-.03.42-.12.13-.37l-4.32-3.58c-.29-.23-.36-.43-.21-.7l.6-1.09c.14-.26.39-.32.73-.15l6.73 3.26c.35.14.35.26 0 .4l-2.62 1.06c-.35.18-.32.31.02.5l1.92 1.1c.34.19.31.32-.03.51l-1.67.9c-.34.2-.39.28-.12.52l2.2 1.99c.28.25.27.4.04.62l-1.19 1.3z"/>
</svg> 