<svg xmlns="http://www.w3.org/2000/svg" viewBox="0 0 24 24">
  <path fill="white" d="M12 6.55c-2.75 0-5 2.24-5 5 0 2.29 1.56 4.22 3.67 4.81v-3.26h-2.67v-1.55h2.67v-1.08c-1.09 0-1.99-.89-1.99-1.99 0-1.1.9-2 2-2s1.99.9 1.99 2c0 .97-.69 1.78-1.61 1.96v1.11h3.68l.26-.26c.1-.1.27-.36.32-.52C16.63 9.45 14.68 6.55 12 6.55zm4.61 4.27h-1.68v1.69h1.68v-1.69zm-1.68 3.23v-1.54h1.68v1.54h-1.68zM12 0C5.37 0 0 5.37 0 12s5.37 12 12 12c.97 0 1.92-.11 2.83-.33v-4.47c-.85.26-1.76.41-2.7.41-4.97 0-9-4.03-9-9s4.03-9 9-9 9 4.03 9 9c0 1.56-.4 3.03-1.11 4.3H24c.16-.65.26-1.32.26-2.01 0-4.56-3.2-8.39-7.48-9.37C15.73.48 13.95 0 12 0z"/>
</svg> 