<svg xmlns="http://www.w3.org/2000/svg" viewBox="0 0 24 24">
  <path fill="white" d="M11.037 6.627c.39 0 .758.07 1.104.21.346.14.649.334.908.582a2.6 2.6 0 0 1 .609.88c.147.338.22.705.22 1.1 0 .538-.11 1.057-.329 1.559a5.252 5.252 0 0 1-.862 1.442 9.539 9.539 0 0 1-1.225 1.268 20.188 20.188 0 0 1-1.417 1.14 18.595 18.595 0 0 1-1.44-1.14 9.883 9.883 0 0 1-1.224-1.268 5.299 5.299 0 0 1-.863-1.442 4.018 4.018 0 0 1-.328-1.559c0-.395.073-.762.22-1.1.147-.339.345-.638.596-.88.25-.248.548-.442.895-.582a2.96 2.96 0 0 1 1.09-.21c.391 0 .757.066 1.098.199.341.132.636.323.885.571a2.568 2.568 0 0 1 .882-.571c.342-.133.708-.199 1.1-.199ZM7.828 8.616c-.15 0-.286.03-.405.093a.924.924 0 0 0-.31.248.98.98 0 0 0-.193.357 1.453 1.453 0 0 0-.067.435c0 .257.044.518.134.781.09.264.21.522.364.774.153.253.335.499.545.74.21.24.435.467.674.683.24.217.483.422.731.618a6.19 6.19 0 0 0-.731.629 7.322 7.322 0 0 0-.674.706 4.667 4.667 0 0 0-.545.774 3.047 3.047 0 0 0-.364.786c-.09.274-.134.55-.134.83 0 .158.022.308.067.45.045.14.112.266.199.378.087.112.197.201.33.267.135.066.292.099.471.099.365 0 .713-.114 1.042-.342.33-.227.642-.518.937-.873.295-.354.566-.752.814-1.194.247-.443.474-.888.683-1.337a38.07 38.07 0 0 1 .725-1.342 8.05 8.05 0 0 1-.797-1.559 5.262 5.262 0 0 1-.329-1.745.835.835 0 0 0-.079-.368.767.767 0 0 0-.206-.267.81.81 0 0 0-.292-.16 1.19 1.19 0 0 0-.335-.05c-.151 0-.289.03-.412.093a.93.93 0 0 0-.31.248.972.972 0 0 0-.194.357 1.453 1.453 0 0 0-.067.435c0 .257.044.518.134.781.09.264.213.52.371.768.158.247.345.49.56.729.217.238.45.462.7.674a6.607 6.607 0 0 1-.364.39 5.562 5.562 0 0 1-.386.356 8.867 8.867 0 0 0-.731-.618 8.566 8.566 0 0 0-.674-.683 7.432 7.432 0 0 0-.545-.74 4.667 4.667 0 0 0-.364-.774 3.047 3.047 0 0 0-.134-.78c0-.158.022-.307.067-.436.045-.13.109-.252.193-.364.083-.112.19-.201.31-.267.12-.066.255-.099.405-.099ZM16.172 8.616c.15 0 .285.03.405.093a.928.928 0 0 1 .31.248c.082.106.15.225.193.357.044.132.066.28.066.435 0 .257-.044.518-.133.781a4.667 4.667 0 0 1-.364.774c-.153.253-.335.499-.545.74-.21.24-.435.467-.674.683-.24.217-.483.422-.731.618.248.195.49.401.731.629.24.227.464.46.674.706.21.245.392.502.545.774.153.271.274.53.364.786.09.274.134.55.134.83 0 .158-.022.308-.067.45a1.162 1.162 0 0 1-.529.645c-.135.066-.292.099-.471.099-.365 0-.713-.114-1.042-.342-.33-.227-.642-.518-.937-.873-.295-.354-.566-.752-.814-1.194-.247-.443-.474-.888-.683-1.337a38.07 38.07 0 0 0-.725-1.342c.33-.474.587-1 .772-1.577.184-.577.354-1.162.354-1.727 0-.132.026-.259.079-.38a.838.838 0 0 1 .206-.28.72.72 0 0 1 .292-.166 1.19 1.19 0 0 1 .335-.05Z"/>
</svg> 