<svg xmlns="http://www.w3.org/2000/svg" viewBox="0 0 24 24">
  <path fill="white" d="M18.445 13.009L20 10.185l-1.584-.879-1.612 2.887-2.077 1.138v-2.491l2.116-1.155L14.798 7.5l-1.638.9v3.3l-1.798.938v-3.26l2.138-1.154-2.1-1.175-1.665.893v2.432l-1.74.938-1.638-2.887-1.57.893 1.527 2.765-1.665.893L3 14.625l1.57.893 2.077-1.124 1.74.938-2.116 1.154 1.57.893 1.806-.984 1.74.924V19.5L12 21l1.612-.892v-2.182l1.784-.953 1.778.953-2.13 1.168L16.68 20l1.806-.969v-2.432l1.638-.893-1.68-.697zm-2.13.287l-1.82.999-1.792-.97 1.82-.984 1.792.955zm-3.564-4.75l1.792-.984 1.82.969-1.82.999-1.792-.984zm-3.564 5.72l-1.805.969-1.778-.954 1.806-.984 1.777.97zm0-4.736l-1.777.969-1.806-.969 1.806-.984 1.777.984z"/>
</svg> 