<svg xmlns="http://www.w3.org/2000/svg" viewBox="0 0 24 24">
  <path fill="white" d="M10.628 16.019c.292-.3.643-.794.756-1.085l.326-.829-2.545-.027 3.766-3.617.29-.267.371-.341a8.362 8.362 0 0 0 .986-1.087c.09-.131.052-.22-.11-.262-.47-.122-.942-.155-1.422-.095-.59.074-1.15.262-1.682.53-.906.454-1.683 1.057-2.33 1.807-.644.743-1.108 1.579-1.363 2.531-.208.78-.237 1.566-.071 2.353.164.771.52 1.428 1.146 1.937.308.251.651.442 1.026.586.269.101.544.176.823.23.414.08.83.09 1.25.04.66-.08 1.245-.336 1.754-.741.225-.179.431-.377.637-.574.042-.04.098-.067.109-.075.093-.059.043-.165-.05-.236-1.136-.875-2.264-1.757-3.393-2.638-.09-.07-.171-.099-.261-.01m3.664-6.497c-.212.193-.437.373-.666.547-1.782 1.358-3.562 2.718-5.345 4.075-.236.179-.215.214.03.376 1.15.76 2.301 1.52 3.452 2.278.073.048.131.058.214.004a5.43 5.43 0 0 0 .645-.527c.48-.449.89-.954 1.24-1.51.5-.794.864-1.648 1.066-2.569.084-.383.136-.77.136-1.164.001-.881-.21-1.695-.662-2.433-.103-.169-.295-.204-.463-.064-.22.155-.433.318-.647.487z"/>
  <path fill="white" d="M17.076 6.15c-.705-.303-1.438-.407-2.186-.32a5.37 5.37 0 0 0-1.632.415 8.68 8.68 0 0 0-1.274.662 10.75 10.75 0 0 0-.824.555c-.162.12-.32.245-.476.371-.114.092-.108.126.023.205.092.055.187.106.284.156.15.075.303.146.454.22l.029.013c.709.337 1.417.676 2.126 1.013.11.052.148.035.228-.05.21-.224.436-.431.688-.61.393-.28.826-.47 1.293-.57.567-.124 1.125-.097 1.676.083.164.054.321.129.471.215.166.095.219.05.224-.138.006-.252-.054-.49-.144-.723-.272-.704-.722-1.27-1.37-1.683-.165-.104-.327-.216-.52-.144-.028.01-.05.016-.07.033v-.703zm-4.355 2.126l-5.096 4.77c-.204.19-.412.377-.616.566-.124.116-.125.12-.013.247.34.385.632.8.887 1.244.416.723.717 1.49.886 2.308.045.219.073.44.105.662.01.069.019.134.106.147.087.013.139-.043.183-.108.26-.383.538-.753.847-1.102.31-.35.643-.678.994-.985.704-.618 1.46-1.165 2.293-1.609.346-.185.704-.34 1.074-.466.138-.047.14-.099.009-.178-.205-.124-.412-.248-.617-.373L8.577 9.986c-.303-.183-.607-.367-.91-.549-.084-.05-.152-.056-.218.006-.244.204-.489.407-.728.617l-.005.004v-.001l.005-.001z"/>
</svg> 